Coordinates
version=1
nRows=16
nColumns=40
inDegrees=yes

Units are S.I. units (second, meters, Newtons, ...)
Angles are in degrees.

endheader
time	pelvis_tilt	pelvis_list	pelvis_rotation	pelvis_tx	pelvis_ty	pelvis_tz	hip_flexion_r	hip_adduction_r	hip_rotation_r	knee_angle_r	knee_angle_r_beta	ankle_angle_r	subtalar_angle_r	mtp_angle_r	hip_flexion_l	hip_adduction_l	hip_rotation_l	knee_angle_l	knee_angle_l_beta	ankle_angle_l	subtalar_angle_l	mtp_angle_l	lumbar_extension	lumbar_bending	lumbar_rotation	arm_flex_r	arm_add_r	arm_rot_r	elbow_flex_r	pro_sup_r	wrist_flex_r	wrist_dev_r	arm_flex_l	arm_add_l	arm_rot_l	elbow_flex_l	pro_sup_l	wrist_flex_l	wrist_dev_l
     15.75000000	     -2.51281042	     -3.27315577	     -0.14954384	      0.75665449	      0.93018053	      0.43712481	     30.84507672	     -7.41947078	     -4.38707728	     71.16318527	     71.16318527	     -5.24727847	    -18.56802714	      6.27405590	     13.09208903	     -2.73867418	     -4.25469221	     23.19833657	     23.19833657	     15.03394395	    -11.51180447	      0.14654310	     -9.81345061	      6.24664187	      1.89325681	      6.03869461	    -12.11442331	     -9.81342345	     37.19661976	     45.29969683	      0.00000000	      0.00000000	     13.06720889	    -13.72655050	      1.70694041	     41.01515844	     45.58117889	      0.00000000	      0.00000000
     15.76271429	     -2.58768262	     -3.36963138	     -0.37924657	      0.75611944	      0.93062376	      0.43678832	     31.62017397	     -7.06928120	     -4.48869055	     69.80210592	     69.80210592	     -4.65367747	    -18.53076143	      6.14735501	     12.42572915	     -2.83604813	     -4.53002040	     22.67778589	     22.67778589	     15.21945360	    -11.23261050	      0.08582481	     -9.82531440	      6.39269654	      2.15649188	      3.94416820	    -12.21664228	     -9.84375173	     35.31168986	     45.37374172	      0.00000000	      0.00000000	     14.29930171	    -13.89225914	      1.38860615	     42.09956829	     45.64914471	      0.00000000	      0.00000000
     15.77542857	     -2.65583079	     -3.49258844	     -0.58752856	      0.75559280	      0.93099552	      0.43646836	     32.28300124	     -6.68891058	     -4.64690189	     68.26849489	     68.26849489	     -4.11415259	    -18.47683317	      6.01810560	     11.79946040	     -2.95419915	     -4.76224501	     22.23282493	     22.23282493	     15.40291480	    -11.00252795	     -0.02765228	     -9.86009988	      6.55874240	      2.35900127	      2.09522411	    -12.22442801	    -10.00289651	     32.89593388	     45.48397334	      0.00000000	      0.00000000	     15.38436706	    -14.10689487	      0.92339029	     43.57792132	     45.73804053	      0.00000000	      0.00000000
     15.78814286	     -2.71236161	     -3.63297418	     -0.80597579	      0.75502633	      0.93135147	      0.43625236	     32.82104051	     -6.28434919	     -4.86345449	     66.51916652	     66.51916652	     -3.56276906	    -18.41144903	      5.97707823	     11.15178261	     -3.09153318	     -5.00234873	     21.75333279	     21.75333279	     15.56775137	    -10.81516647	     -0.08427393	     -9.92388322	      6.74056957	      2.46987452	      0.37661787	    -12.25111153	    -10.17142051	     30.71376232	     45.58551066	      0.00000000	      0.00000000	     16.36169192	    -14.32880207	      0.43625847	     45.06484358	     45.82315119	      0.00000000	      0.00000000
     15.80085714	     -2.83054301	     -3.74585324	     -0.97391866	      0.75442270	      0.93153444	      0.43607810	     33.32397433	     -5.92622033	     -5.12463170	     64.52803740	     64.52803740	     -3.12581683	    -18.31732307	      5.78241087	     10.60983365	     -3.21438604	     -5.24333697	     21.32440059	     21.32440059	     15.66748418	    -10.53248108	     -0.41823533	     -9.90868639	      6.88476317	      1.51303976	      0.55829053	    -11.80303994	    -11.65839453	     25.51018559	     45.99611045	      0.00000000	      0.00000000	     16.05003375	    -15.00788996	     -1.42335455	     48.22107293	     46.10054857	      0.00000000	      0.00000000
     15.81357143	     -2.91545646	     -3.85489873	     -1.16115968	      0.75379541	      0.93170676	      0.43601450	     33.67027735	     -5.55740700	     -5.41345018	     62.25547193	     62.25547193	     -2.62683179	    -18.13952519	      5.79332954	     10.03176377	     -3.31471500	     -5.42523518	     20.88649404	     20.88649404	     15.84795210	    -10.36504821	     -0.41326589	     -9.98737087	      7.04117941	      1.73692740	     -1.34424188	    -11.89343681	    -11.87628823	     24.30165098	     46.06443244	      0.00000000	      0.00000000	     17.14195710	    -15.13302861	     -1.89039354	     49.42876371	     46.17858649	      0.00000000	      0.00000000
     15.82628571	     -3.04673797	     -3.93706046	     -1.33595003	      0.75312765	      0.93171866	      0.43607427	     33.93843922	     -5.22631780	     -5.75877757	     59.67649578	     59.67649578	     -2.17765936	    -17.90824295	      5.55954702	      9.53093102	     -3.41708088	     -5.69525613	     20.48224335	     20.48224335	     16.03655464	    -10.04533497	     -0.50385464	    -10.03131737	      7.14539824	      1.84523278	     -3.02038082	    -11.91191490	    -12.27638477	     23.00469015	     46.16645711	      0.00000000	      0.00000000	     17.96214546	    -15.26853004	     -2.56032905	     51.07453875	     46.28106075	      0.00000000	      0.00000000
     15.83900000	     -3.20642776	     -4.05862330	     -1.46504902	      0.75238014	      0.93165012	      0.43623901	     34.08981806	     -4.87398156	     -6.21648354	     56.76125247	     56.76125247	     -1.68182625	    -17.53488240	      5.50427885	      9.08994083	     -3.54632542	     -5.83516487	     20.10217722	     20.10217722	     16.22156257	     -9.89543966	     -0.52707371	    -10.03776142	      7.31260595	      1.67827889	     -4.54635793	    -11.97256099	    -12.44877485	     22.20163827	     46.21315258	      0.00000000	      0.00000000	     18.71998257	    -15.54861743	     -2.95185264	     52.10044786	     46.33991703	      0.00000000	      0.00000000
     15.85171429	     -3.41516326	     -4.10457392	     -1.62051160	      0.75167189	      0.93144532	      0.43658061	     34.14934556	     -4.57586559	     -6.65758513	     53.51633401	     53.51633401	     -1.15768592	    -16.99360676	      5.37497636	      8.70167504	     -3.61126542	     -6.02283816	     19.73713985	     19.73713985	     16.37472596	     -9.68201337	     -0.56634674	     -9.99294193	      7.37868591	      1.62821774	     -6.13185377	    -11.98988213	    -12.60902668	     21.46902867	     46.25397824	      0.00000000	      0.00000000	     19.51950929	    -15.85900078	     -3.39018588	     53.27524296	     46.40357762	      0.00000000	      0.00000000
     15.86442857	     -3.52354135	     -4.11836604	     -1.80682993	      0.75109800	      0.93122246	      0.43710359	     33.83165432	     -4.29167377	     -7.14180456	     49.73165774	     49.73165774	     -1.59774027	    -16.60243348	      2.24972413	      8.20118566	     -3.71619433	     -6.53317779	     19.40874338	     19.40874338	     16.64982051	     -8.96741396	     -0.83731667	    -10.18477153	      7.32991547	      1.35187861	     -7.47142527	    -11.90658416	    -13.96565931	     21.12315650	     46.46349316	      0.00000000	      0.00000000	     19.16267227	    -16.01537732	     -5.38844492	     57.24105034	     46.65437664	      0.00000000	      0.00000000
     15.87714286	     -3.82086843	     -4.14927704	     -1.94803925	      0.75037842	      0.93074815	      0.43772385	     33.67233203	     -3.96344899	     -7.63837043	     45.87619577	     45.87619577	     -1.03823444	    -15.57162426	      2.28020157	      7.92726248	     -3.76938374	     -6.63238406	     19.06553226	     19.06553226	     16.80147028	     -8.88298515	     -0.84347244	    -10.04206827	      7.37591884	      1.23049909	     -8.83314606	    -11.95077340	    -14.07963490	     20.59451927	     46.49141413	      0.00000000	      0.00000000	     19.90128710	    -16.30662803	     -5.66107685	     57.94646954	     46.69572906	      0.00000000	      0.00000000
     15.88985714	     -3.92716525	     -4.07019682	     -2.12780656	      0.74993025	      0.93040872	      0.43842818	     33.08967198	     -3.78951443	     -8.26153064	     41.68723248	     41.68723248	     -0.86527238	    -14.09318739	      0.87938061	      7.36800104	     -3.74742857	     -7.07866102	     18.64438202	     18.64438202	     17.04068246	     -8.32440680	     -0.96817987	    -10.19633124	      7.22761743	      1.60447615	    -10.56399902	    -11.92106544	    -14.61154851	     20.60871351	     46.55435857	      0.00000000	      0.00000000	     20.47097108	    -16.09687133	     -6.41159154	     60.07713951	     46.80563394	      0.00000000	      0.00000000
     15.90257143	     -4.24455955	     -4.10902027	     -2.24087777	      0.74941440	      0.92970745	      0.43931524	     32.58680979	     -3.38252240	     -8.81764411	     37.34281344	     37.34281344	     -0.44795604	    -12.58841215	      0.96004672	      7.15033070	     -3.83725698	     -7.18739905	     18.39827681	     18.39827681	     17.23241239	     -8.22882117	     -1.03882371	    -10.02746578	      7.27073622	      1.41021875	    -11.73827294	    -11.93833178	    -14.75543059	     20.39066092	     46.57167027	      0.00000000	      0.00000000	     21.01392096	    -16.39696580	     -6.68081339	     60.80110978	     46.84520382	      0.00000000	      0.00000000
     15.91528571	     -4.54551008	     -4.00266687	     -2.39139359	      0.74903523	      0.92888886	      0.44036090	     31.97037339	     -3.09651155	     -9.34859623	     32.97677926	     32.97677926	     -0.13396673	    -10.74281016	      1.14857280	      6.89037014	     -3.79027423	     -7.41715056	     18.13464951	     18.13464951	     17.42277679	     -8.03507057	     -1.14449682	     -9.85390440	      7.07899999	      1.39990868	    -12.90920422	    -11.87492645	    -14.88486347	     20.23495189	     46.58274249	      0.00000000	      0.00000000	     21.57379770	    -16.60958833	     -6.96808830	     61.68745009	     46.88790230	      0.00000000	      0.00000000
     15.92800000	     -4.51847359	     -3.93983682	     -2.47407836	      0.74923450	      0.92834788	      0.44132651	     30.79747590	     -2.96794040	    -10.54062783	     28.64414147	     28.64414147	      0.16611327	     -7.62060748	      0.41037344	      6.14049414	     -3.81791848	     -7.93587322	     17.71672686	     17.71672686	     17.77010733	     -7.13954163	     -1.45096150	    -10.09825857	      6.98830133	      1.57790533	    -14.59220794	    -11.86189468	    -15.47477877	     21.24244835	     46.59299518	      0.00000000	      0.00000000	     21.68500873	    -16.33550264	     -7.77029602	     64.07696787	     47.00052513	      0.00000000	      0.00000000
     15.94071429	     -4.70818980	     -3.93253957	     -2.53561121	      0.74936395	      0.92742675	      0.44259929	     29.82912785	     -2.51994372	    -11.16029958	     24.47033888	     24.47033888	      0.25651883	     -5.61551339	      0.99429597	      5.74199061	     -3.88302301	     -8.04908397	     17.48707662	     17.48707662	     18.04711742	     -6.94397226	     -1.61231890	     -9.98979675	      6.95483730	      1.51245375	    -15.58942827	    -11.85517308	    -15.64846496	     21.33196407	     46.60009401	      0.00000000	      0.00000000	     22.00617217	    -16.44280401	     -8.03535205	     64.87533532	     47.04069527	      0.00000000	      0.00000000
